<?xml version="1.0" encoding="UTF-8" standalone="no"?>
<!DOCTYPE svg PUBLIC "-//W3C//DTD SVG 1.1//EN" "http://www.w3.org/Graphics/SVG/1.1/DTD/svg11.dtd">
<svg version="1.1" xmlns="http://www.w3.org/2000/svg" xmlns:xlink="http://www.w3.org/1999/xlink" preserveAspectRatio="xMidYMid meet" viewBox="0 0 640 640" width="640" height="640"><defs><path d="M461.05 535.58L488.22 582.65L490.29 586.24L597.5 586.24L599.67 362.89L461.05 362.89L461.05 362.89L461.05 535.58Z" id="bL7y2pTgl"></path><path d="M461.05 535.58L488.22 582.65L489.89 362.89L461.05 362.89L461.05 362.89L461.05 535.58Z" id="b8kIrq4EP"></path><path d="M202.22 530.98L175.05 578.05L172.98 581.63L65.76 581.63L63.6 358.29L202.22 358.29L202.22 358.29L202.22 530.98Z" id="b1iTZT529d"></path><path d="M202.22 530.98L175.05 578.05L173.38 358.29L202.22 358.29L202.22 358.29L202.22 530.98Z" id="m1euoKKZX"></path><path d="M632.16 365.2L49.52 365.2L49.52 350.23L103.67 320.3L584.51 320.3L632.16 354.84L632.16 354.84L632.16 365.2Z" id="e5HGhfFhh"></path><path d="M632.16 365.2L49.52 365.2L49.52 350.23L632.16 354.84L632.16 354.84L632.16 365.2Z" id="ai7DzztnB"></path><path d="M106.92 406.64L96.09 398.58L144.82 398.58L132.91 406.64L132.91 406.64L106.92 406.64Z" id="i7T1dPK8p"></path><path d="M106.92 440.03L96.09 431.97L144.82 431.97L132.91 440.03L132.91 440.03L106.92 440.03Z" id="bdKOwwYlv"></path><path d="M106.92 487.23L96.09 479.17L144.82 479.17L132.91 487.23L132.91 487.23L106.92 487.23Z" id="j4dwFNh22c"></path><path d="M106.92 534.43L96.09 526.37L144.82 526.37L132.91 534.43L132.91 534.43L106.92 534.43Z" id="c3tixLadh"></path><path d="M556.35 411.25L567.18 403.19L518.45 403.19L530.36 411.25L530.36 411.25L556.35 411.25Z" id="bYIqcArem"></path><path d="M556.35 444.63L567.18 436.57L518.45 436.57L530.36 444.63L530.36 444.63L556.35 444.63Z" id="bkvxqVB8S"></path><path d="M556.35 491.83L567.18 483.78L518.45 483.78L530.36 491.83L530.36 491.83L556.35 491.83Z" id="h16RRBSGHL"></path><path d="M556.35 539.03L567.18 530.98L518.45 530.98L530.36 539.03L530.36 539.03L556.35 539.03Z" id="bbDQAyIFU"></path><path d="M329.25 120.6C324.68 120.6 320.97 124.54 320.97 129.4C320.97 129.4 320.97 129.4 320.97 129.4C320.97 145.07 320.97 270.42 320.97 286.09C320.97 290.95 324.68 294.89 329.25 294.89C329.25 294.89 329.25 294.89 329.25 294.89C334.78 294.89 362.47 294.89 412.31 294.89C410.44 307.56 409.41 314.6 409.2 316.01C409.2 316.01 391.41 326.05 403.92 326.35C403.92 326.35 475.33 326.35 475.33 326.35C475.33 326.35 486.73 326.35 468.66 315.71C468.47 314.32 467.49 307.38 465.74 294.89C515.13 294.89 542.57 294.89 548.06 294.89C552.63 294.89 556.33 290.95 556.33 286.09C556.33 286.09 556.33 286.09 556.33 286.09C556.33 270.42 556.33 145.07 556.33 129.4C556.34 124.54 552.63 120.6 548.06 120.6C548.06 120.6 548.06 120.6 548.06 120.6C548.06 120.6 351.13 120.6 329.25 120.6Z" id="aaOidZMA"></path><path d="M548.42 129.91C548.42 129.91 548.42 129.91 548.42 129.91C548.42 208.25 548.42 251.77 548.42 260.47C548.42 260.47 548.42 260.47 548.42 260.47C416.7 260.47 343.53 260.47 328.89 260.47C328.89 260.47 328.89 260.47 328.89 260.47C328.89 182.13 328.89 138.61 328.89 129.91C328.89 129.91 328.89 129.91 328.89 129.91C460.61 129.91 533.78 129.91 548.42 129.91Z" id="e2neNiBtg4"></path><path d="M438.65 124.3C437.89 124.3 437.26 124.96 437.26 125.77C437.26 126.59 437.89 127.25 438.65 127.25C439.42 127.25 440.04 126.59 440.04 125.77C440.04 124.96 439.42 124.3 438.65 124.3Z" id="c2N99nCBaX"></path><path d="M438.65 277.31C435.74 277.31 433.37 279.82 433.37 282.92C433.37 286.02 435.74 288.53 438.65 288.53C441.57 288.53 443.93 286.02 443.93 282.92C443.93 279.82 441.57 277.31 438.65 277.31Z" id="bgfyXat9p"></path><path d="M430.43 345.25L280.93 345.25L280.93 342.89L281.13 342.3L284.82 331.66L427.37 331.66L430.43 342.3L430.43 342.3L430.43 345.25Z" id="bb0Fx7AgM"></path><path d="M484.33 343.18C476 347.61 459.05 342 459.05 342C459.05 342 445.99 339.64 445.99 333.43C446.35 333.17 446.74 332.93 447.13 332.71C450.64 330.74 462.26 325.88 482.86 332.92C484.38 333.42 485.74 334.37 486.78 335.65C487.72 336.63 488.16 338.02 487.96 339.4C487.69 340.64 486.66 341.95 484.33 343.18Z" id="faKLJm67f"></path><path d="M459.33 336.98C455.8 334.21 451.52 332.71 447.13 332.71C450.64 330.74 462.26 325.88 482.86 332.92C484.38 333.42 485.74 334.37 486.78 335.65C487.72 336.63 488.16 338.02 487.96 339.4C477.75 343.56 468.66 343.87 459.33 336.98Z" id="bY2gq8gIy"></path><path d="M478.78 335.8C478.78 336.45 477.16 336.98 475.16 336.98C473.17 336.98 471.55 336.45 471.55 335.8C471.55 335.15 473.17 334.62 475.16 334.62C477.16 334.62 478.78 335.15 478.78 335.8Z" id="c4yOcaAQTC"></path><path d="M430.43 345.25L280.93 345.25L280.93 342.89L281.13 342.3L430.43 342.3L430.43 342.3L430.43 345.25Z" id="b13X1AnAVQ"></path><path d="M86.42 9.2C85.13 10.14 84.31 11.79 83.48 13.33C80.29 19.28 75.97 24.46 70.8 28.55C67.04 31.48 62.25 35.14 62.89 40.55C63.23 42.33 63.85 44.05 64.73 45.61C68.2 53.07 77.68 58.83 76.75 67.34C80.2 61.19 75.59 58.16 79.04 52.01C80.68 49.09 83.54 45.79 86.02 47.62C86.85 48.24 87.4 49.34 88.26 49.88C90.33 51.17 92.52 48.71 94.35 46.96C100.65 40.95 109.61 42.52 117.46 44.4C121.16 45.28 125.23 46.44 127.41 50.21C130.29 55.15 124.68 60.49 123.26 66.08C122.87 67.71 123.79 69.37 125.32 69.8C125.65 69.89 126 69.91 126.34 69.88C128.69 69.63 131.48 69.43 131.62 68.33C134.58 68.44 138.21 68.08 139.48 64.81C139.86 63.51 140.07 62.16 140.08 60.8C140.55 55.3 142.75 50.27 144.2 45.03C145.66 39.79 146.29 33.65 143.83 29.01C142.96 27.46 141.87 26.06 140.62 24.85C126.67 10.51 108.34 8.14 90.78 8.16C89.26 8.03 87.74 8.39 86.42 9.2Z" id="ah4XnRCkm"></path><path d="M71.7 107.1C71.7 107.1 81.81 145.78 81.81 145.78C85.18 146.21 102.02 148.36 132.35 152.23C125.07 126.44 121.03 112.11 120.22 109.24C120.22 109.24 112.13 106.02 117.18 84.53C122.24 63.04 79.78 78.08 79.78 78.08C78.17 83.89 82.82 104.95 71.7 107.1Z" id="a6rwa1Ebo"></path><path d="M53 598.7L74.22 598.7L68.16 539.6L48.95 539.6L48.95 539.6L53 598.7Z" id="c2Rs0wbmsb"></path><path d="M207.65 477.28L230.9 466.53L221.8 425.7L204.62 427.85L204.62 427.85L207.65 477.28Z" id="e9VJkZyp1"></path><path d="M33.79 313.94C33.79 313.94 34.8 376.27 40.87 396.68C40.87 396.68 45.92 418.18 44.91 421.4C44.91 421.4 42.89 422.47 42.89 427.85C42.89 427.85 40.87 518.11 42.89 525.63C42.89 525.63 36.82 546.05 42.89 547.12C42.89 547.12 77.26 547.12 78.27 540.67C78.27 540.67 70.18 532.08 74.22 527.78C74.22 527.78 84.33 435.37 84.33 435.37C85.28 431.29 89.99 410.87 98.48 374.12L124.77 341.88L180.36 341.88C190.67 384.44 196.4 408.08 197.55 412.8C197.55 412.8 190.47 433.22 195.52 433.22C195.52 433.22 230.9 439.67 230.9 416.03C230.9 392.39 220.79 322.54 218.77 320.39C216.75 318.24 219.78 310.72 216.75 307.5C213.72 304.27 178.34 281.71 165.2 277.41C152.06 273.11 133.62 268 133.62 268C113.66 277.19 53.76 304.76 33.79 313.94Z" id="h13VdX1WWV"></path><path d="M208.66 468.68C208.66 468.68 204.62 489.1 204.62 489.1C204.62 489.1 227.87 497.69 231.91 493.39C233.67 491.52 239.26 490.87 245.01 490.74C253.77 490.53 256.1 477.36 247.82 474.29C247.45 474.15 247.15 474.08 247.08 474.05C238.99 471.9 230.9 457.93 230.9 457.93C226.45 460.08 215.74 452.56 208.66 468.68Z" id="cgDiBnSRp"></path><path d="M102.53 31.34C85.78 31.34 72.2 45.77 72.2 63.58C72.2 81.38 85.78 95.81 102.53 95.81C119.28 95.81 132.85 81.38 132.85 63.58C132.85 45.77 119.28 31.34 102.53 31.34Z" id="b4qXH9a7L"></path><path d="M124.77 114.08C124.77 114.08 141.95 162.43 141.95 162.43C142.35 167.02 144.38 189.94 148.01 231.21C142.56 253.77 139.52 266.31 138.92 268.81C138.92 268.81 91.41 309.65 76.25 312.87C76.25 312.87 37.83 318.24 37.83 318.24C37.83 318.24 44.91 198.97 44.91 196.82C44.91 194.67 63.11 120.53 63.11 120.53C75.44 119.24 112.64 131.27 124.77 114.08Z" id="g6FP7ZjfG4"></path><path d="M64.12 100.11C61.08 106.56 32.78 122.68 29.75 122.68C26.72 122.68 35.81 211.86 31.77 222.61C27.73 233.35 8.52 311.8 19.64 318.24C30.76 324.69 22.67 311.8 33.79 327.91C44.91 344.03 99.5 344.03 102.53 337.58C105.56 331.14 78.27 282.78 83.32 237.65C88.38 192.52 96.46 130.2 89.39 121.6C82.31 113.01 78.17 100.37 78.17 100.37C75.36 100.32 67.15 93.66 64.12 100.11Z" id="f3IcAaZlDt"></path><path d="M116.07 102.48C116.07 102.48 158.12 117.3 160.14 126.97C160.14 126.97 161.16 204.34 154.08 209.71C154.08 209.71 136.9 223.68 143.97 236.58C143.97 236.58 159.13 263.44 165.2 264.52C165.2 264.52 182.38 273.11 179.35 280.63C179.35 280.63 139.93 274.19 139.93 274.19C139.93 274.19 115.67 254.85 116.68 224.76C117.69 194.67 114.66 107.63 114.66 107.63C114.94 106.6 115.92 103 116.07 102.48Z" id="a148B0mQBF"></path><path d="M150.04 234.43C135.48 263.44 127.39 279.56 125.78 282.78C125.78 282.78 90.4 321.47 110.61 325.76C110.61 325.76 141.95 290.31 141.95 290.31C143.7 287.65 152.46 274.4 168.23 250.55L150.04 234.43Z" id="afwfCbRMO"></path><path d="M88.71 17.33C87.72 18.1 86.9 19.1 86.31 20.25C83.62 24.56 80.1 28.23 76 31.01C72.93 33.08 69.03 35.66 69.56 39.49C69.84 40.77 70.35 41.98 71.05 43.07C73.89 48.39 75.02 54.55 74.27 60.62C75.11 59.31 81.86 48.89 82.7 47.59C84.04 45.52 86.36 43.19 88.38 44.49C89.06 44.92 89.5 45.7 90.21 46.08C91.89 46.99 93.68 45.25 95.16 44.02C100.29 39.77 107.59 40.88 113.97 42.21C116.99 42.83 120.3 43.65 122.08 46.31C125.04 50.73 121.95 57.11 123.68 62.22C124.65 61.49 125.31 60.37 125.5 59.12C127.91 59.2 130.86 58.95 131.9 56.63C132.21 55.73 132.38 54.77 132.39 53.8C132.77 49.91 134.56 46.36 135.75 42.66C136.93 38.95 137.45 34.61 135.45 31.33C134.71 30.22 133.83 29.23 132.83 28.39C121.47 18.25 106.55 16.58 92.26 16.6C91.04 16.5 89.81 16.75 88.71 17.33Z" id="b2crvit5x"></path><path d="M150.04 122.68C155.69 124.27 158.83 125.16 159.45 125.33C159.45 125.33 181.37 185 176.32 225.83C176.32 225.83 168.23 258.07 168.23 258.07C168.23 258.07 160.14 238.73 141.95 243.03C143.03 226.98 145.72 186.86 150.04 122.68Z" id="c2C6SZaITS"></path><path d="M46.25 603.16C44.37 606.39 40.85 608.08 38.51 610.94C37.76 611.89 37.09 612.91 36.52 613.98C34.34 617.85 32.58 622.8 34.72 626.69C36.44 629.82 40.06 631.04 43.37 631.87C47.56 632.93 51.92 633.77 56.16 632.97C60.4 632.16 64.55 629.4 66.06 625.11C66.35 624.03 66.71 622.98 67.12 621.94C69.41 617.13 76.62 617.08 78.98 612.3C80.62 608.95 79.11 604.91 77.6 601.49C77.13 600.45 73.44 592.1 72.98 591.06C71.44 587.59 65.23 589.59 61.99 588.76C57.76 587.67 53.39 586.48 50.35 590.89C47.92 594.41 48.41 599.44 46.25 603.16Z" id="eeQK48mG1"></path><path d="M16.61 255.92C42.08 297.83 56.23 321.11 59.06 325.76C59.06 325.76 85.34 361.22 93.43 345.11C93.43 345.11 65.13 302.13 65.13 302.13C63.31 298.54 54.21 280.63 37.83 248.4L16.61 255.92Z" id="fevlOjFVe"></path><path d="M29.75 122.68C29.75 122.68 13.57 128.05 9.53 150.61C9.53 150.61 8.52 263.44 13.57 264.52C13.57 264.52 38.54 248.8 41.72 252.36C41.72 252.36 34.8 237.65 37.83 227.98C40.87 218.31 37.83 124.83 37.83 124.83C36.22 124.4 30.56 122.89 29.75 122.68Z" id="fm2s8L1a4"></path><path d="M417.88 172.79C417.88 172.79 417.88 172.79 417.88 172.79C417.88 176.8 417.88 179.03 417.88 179.48C417.88 179.48 417.88 179.48 417.88 179.48C402.2 179.48 393.49 179.48 391.75 179.48C391.75 179.48 391.75 179.48 391.75 179.48C391.75 175.46 391.75 173.24 391.75 172.79C391.75 172.79 391.75 172.79 391.75 172.79C407.43 172.79 416.13 172.79 417.88 172.79Z" id="d27tzwTI7Y"></path><path d="M508.35 172.79C508.35 172.79 508.35 172.79 508.35 172.79C508.35 176.8 508.35 179.03 508.35 179.48C508.35 179.48 508.35 179.48 508.35 179.48C502.83 179.48 499.77 179.48 499.16 179.48C499.16 179.48 499.16 179.48 499.16 179.48C499.16 175.46 499.16 173.24 499.16 172.79C499.16 172.79 499.16 172.79 499.16 172.79C504.67 172.79 507.74 172.79 508.35 172.79Z" id="k6AJWzY0l"></path><path d="M526.73 172.79C526.73 172.79 526.73 172.79 526.73 172.79C526.73 176.8 526.73 179.03 526.73 179.48C526.73 179.48 526.73 179.48 526.73 179.48C521.22 179.48 518.15 179.48 517.54 179.48C517.54 179.48 517.54 179.48 517.54 179.48C517.54 175.46 517.54 173.24 517.54 172.79C517.54 172.79 517.54 172.79 517.54 172.79C523.06 172.79 526.12 172.79 526.73 172.79Z" id="ak4z1Ng4j"></path><path d="M489.48 172.79C489.48 172.79 489.48 172.79 489.48 172.79C489.48 176.8 489.48 179.03 489.48 179.48C489.48 179.48 489.48 179.48 489.48 179.48C452.03 179.48 431.23 179.48 427.07 179.48C427.07 179.48 427.07 179.48 427.07 179.48C427.07 175.46 427.07 173.24 427.07 172.79C427.07 172.79 427.07 172.79 427.07 172.79C464.52 172.79 485.32 172.79 489.48 172.79Z" id="bADkntr3B"></path><path d="M384.98 215.99C384.98 215.99 384.98 215.99 384.98 215.99C384.98 220 384.98 222.23 384.98 222.68C384.98 222.68 384.98 222.68 384.98 222.68C369.3 222.68 360.59 222.68 358.85 222.68C358.85 222.68 358.85 222.68 358.85 222.68C358.85 218.67 358.85 216.44 358.85 215.99C358.85 215.99 358.85 215.99 358.85 215.99C374.53 215.99 383.23 215.99 384.98 215.99Z" id="c2d2cob55C"></path><path d="M475.45 215.99C475.45 215.99 475.45 215.99 475.45 215.99C475.45 220 475.45 222.23 475.45 222.68C475.45 222.68 475.45 222.68 475.45 222.68C469.93 222.68 466.87 222.68 466.26 222.68C466.26 222.68 466.26 222.68 466.26 222.68C466.26 218.67 466.26 216.44 466.26 215.99C466.26 215.99 466.26 215.99 466.26 215.99C471.77 215.99 474.84 215.99 475.45 215.99Z" id="d1bnJxoPnL"></path><path d="M493.83 215.99C493.83 215.99 493.83 215.99 493.83 215.99C493.83 220 493.83 222.23 493.83 222.68C493.83 222.68 493.83 222.68 493.83 222.68C488.32 222.68 485.25 222.68 484.64 222.68C484.64 222.68 484.64 222.68 484.64 222.68C484.64 218.67 484.64 216.44 484.64 215.99C484.64 215.99 484.64 215.99 484.64 215.99C490.16 215.99 493.22 215.99 493.83 215.99Z" id="biTOeJN3J"></path><path d="M456.58 215.99C456.58 215.99 456.58 215.99 456.58 215.99C456.58 220 456.58 222.23 456.58 222.68C456.58 222.68 456.58 222.68 456.58 222.68C419.13 222.68 398.33 222.68 394.17 222.68C394.17 222.68 394.17 222.68 394.17 222.68C394.17 218.67 394.17 216.44 394.17 215.99C394.17 215.99 394.17 215.99 394.17 215.99C431.62 215.99 452.42 215.99 456.58 215.99Z" id="atnZT5wqZ"></path><path d="M492.87 187.7C492.87 187.7 492.87 187.7 492.87 187.7C492.87 191.72 492.87 193.94 492.87 194.39C492.87 194.39 492.87 194.39 492.87 194.39C477.19 194.39 468.48 194.39 466.74 194.39C466.74 194.39 466.74 194.39 466.74 194.39C466.74 190.38 466.74 188.15 466.74 187.7C466.74 187.7 466.74 187.7 466.74 187.7C482.42 187.7 491.12 187.7 492.87 187.7Z" id="b2wCMVy1su"></path><path d="M528.18 187.7C528.18 187.7 528.18 187.7 528.18 187.7C528.18 191.72 528.18 193.94 528.18 194.39C528.18 194.39 528.18 194.39 528.18 194.39C512.51 194.39 503.8 194.39 502.06 194.39C502.06 194.39 502.06 194.39 502.06 194.39C502.06 190.38 502.06 188.15 502.06 187.7C502.06 187.7 502.06 187.7 502.06 187.7C517.73 187.7 526.44 187.7 528.18 187.7Z" id="a29KiErRhN"></path><path d="M368.04 187.7C368.04 187.7 368.04 187.7 368.04 187.7C368.04 191.72 368.04 193.94 368.04 194.39C368.04 194.39 368.04 194.39 368.04 194.39C362.53 194.39 359.46 194.39 358.85 194.39C358.85 194.39 358.85 194.39 358.85 194.39C358.85 190.38 358.85 188.15 358.85 187.7C358.85 187.7 358.85 187.7 358.85 187.7C364.37 187.7 367.43 187.7 368.04 187.7Z" id="a11a8ptt3X"></path><path d="M386.43 187.7C386.43 187.7 386.43 187.7 386.43 187.7C386.43 191.72 386.43 193.94 386.43 194.39C386.43 194.39 386.43 194.39 386.43 194.39C380.91 194.39 377.85 194.39 377.24 194.39C377.24 194.39 377.24 194.39 377.24 194.39C377.24 190.38 377.24 188.15 377.24 187.7C377.24 187.7 377.24 187.7 377.24 187.7C382.75 187.7 385.82 187.7 386.43 187.7Z" id="eAz8GU5Mx"></path><path d="M458.03 187.7C458.03 187.7 458.03 187.7 458.03 187.7C458.03 191.72 458.03 193.94 458.03 194.39C458.03 194.39 458.03 194.39 458.03 194.39C420.59 194.39 399.78 194.39 395.62 194.39C395.62 194.39 395.62 194.39 395.62 194.39C395.62 190.38 395.62 188.15 395.62 187.7C395.62 187.7 395.62 187.7 395.62 187.7C433.07 187.7 453.87 187.7 458.03 187.7Z" id="a2OGaDotd4"></path><path d="M438.68 202.11C438.68 202.11 438.68 202.11 438.68 202.11C438.68 206.12 438.68 208.35 438.68 208.79C438.68 208.79 438.68 208.79 438.68 208.79C423 208.79 414.3 208.79 412.55 208.79C412.55 208.79 412.55 208.79 412.55 208.79C412.55 204.78 412.55 202.55 412.55 202.11C412.55 202.11 412.55 202.11 412.55 202.11C428.23 202.11 436.94 202.11 438.68 202.11Z" id="f4Uh81DFo"></path><path d="M403.36 202.11C403.36 202.11 403.36 202.11 403.36 202.11C403.36 206.12 403.36 208.35 403.36 208.79C403.36 208.79 403.36 208.79 403.36 208.79C387.69 208.79 378.98 208.79 377.24 208.79C377.24 208.79 377.24 208.79 377.24 208.79C377.24 204.78 377.24 202.55 377.24 202.11C377.24 202.11 377.24 202.11 377.24 202.11C392.91 202.11 401.62 202.11 403.36 202.11Z" id="a22BiloLT"></path><path d="M368.04 202.11C368.04 202.11 368.04 202.11 368.04 202.11C368.04 206.12 368.04 208.35 368.04 208.79C368.04 208.79 368.04 208.79 368.04 208.79C362.53 208.79 359.46 208.79 358.85 208.79C358.85 208.79 358.85 208.79 358.85 208.79C358.85 204.78 358.85 202.55 358.85 202.11C358.85 202.11 358.85 202.11 358.85 202.11C364.37 202.11 367.43 202.11 368.04 202.11Z" id="a5NdF4JyU1"></path><path d="M528.19 202.11C528.19 202.11 528.19 202.11 528.19 202.11C528.19 206.12 528.19 208.35 528.19 208.79C528.19 208.79 528.19 208.79 528.19 208.79C522.67 208.79 519.61 208.79 518.99 208.79C518.99 208.79 518.99 208.79 518.99 208.79C518.99 204.78 518.99 202.55 518.99 202.11C518.99 202.11 518.99 202.11 518.99 202.11C524.51 202.11 527.57 202.11 528.19 202.11Z" id="aazWd5q83"></path><path d="M509.8 202.11C509.8 202.11 509.8 202.11 509.8 202.11C509.8 206.12 509.8 208.35 509.8 208.79C509.8 208.79 509.8 208.79 509.8 208.79C472.35 208.79 451.55 208.79 447.39 208.79C447.39 208.79 447.39 208.79 447.39 208.79C447.39 204.78 447.39 202.55 447.39 202.11C447.39 202.11 447.39 202.11 447.39 202.11C484.84 202.11 505.64 202.11 509.8 202.11Z" id="c9foSdgxj"></path></defs><g><g><g><use xlink:href="#bL7y2pTgl" opacity="1" fill="#e6e6e6" fill-opacity="1"></use><g><use xlink:href="#bL7y2pTgl" opacity="1" fill-opacity="0" stroke="#000000" stroke-width="1" stroke-opacity="0"></use></g></g><g><use xlink:href="#b8kIrq4EP" opacity="1" fill="#000000" fill-opacity="1"></use><g><use xlink:href="#b8kIrq4EP" opacity="1" fill-opacity="0" stroke="#000000" stroke-width="1" stroke-opacity="0"></use></g></g><g><use xlink:href="#b1iTZT529d" opacity="1" fill="#e6e6e6" fill-opacity="1"></use><g><use xlink:href="#b1iTZT529d" opacity="1" fill-opacity="0" stroke="#000000" stroke-width="1" stroke-opacity="0"></use></g></g><g><use xlink:href="#m1euoKKZX" opacity="1" fill="#000000" fill-opacity="1"></use><g><use xlink:href="#m1euoKKZX" opacity="1" fill-opacity="0" stroke="#000000" stroke-width="1" stroke-opacity="0"></use></g></g><g><use xlink:href="#e5HGhfFhh" opacity="1" fill="#e6e6e6" fill-opacity="1"></use><g><use xlink:href="#e5HGhfFhh" opacity="1" fill-opacity="0" stroke="#000000" stroke-width="1" stroke-opacity="0"></use></g></g><g><use xlink:href="#ai7DzztnB" opacity="1" fill="#000000" fill-opacity="1"></use><g><use xlink:href="#ai7DzztnB" opacity="1" fill-opacity="0" stroke="#000000" stroke-width="1" stroke-opacity="0"></use></g></g><g><use xlink:href="#i7T1dPK8p" opacity="1" fill="#3f3d56" fill-opacity="1"></use><g><use xlink:href="#i7T1dPK8p" opacity="1" fill-opacity="0" stroke="#000000" stroke-width="1" stroke-opacity="0"></use></g></g><g><use xlink:href="#bdKOwwYlv" opacity="1" fill="#3f3d56" fill-opacity="1"></use><g><use xlink:href="#bdKOwwYlv" opacity="1" fill-opacity="0" stroke="#000000" stroke-width="1" stroke-opacity="0"></use></g></g><g><use xlink:href="#j4dwFNh22c" opacity="1" fill="#3f3d56" fill-opacity="1"></use><g><use xlink:href="#j4dwFNh22c" opacity="1" fill-opacity="0" stroke="#000000" stroke-width="1" stroke-opacity="0"></use></g></g><g><use xlink:href="#c3tixLadh" opacity="1" fill="#3f3d56" fill-opacity="1"></use><g><use xlink:href="#c3tixLadh" opacity="1" fill-opacity="0" stroke="#000000" stroke-width="1" stroke-opacity="0"></use></g></g><g><use xlink:href="#bYIqcArem" opacity="1" fill="#3f3d56" fill-opacity="1"></use><g><use xlink:href="#bYIqcArem" opacity="1" fill-opacity="0" stroke="#000000" stroke-width="1" stroke-opacity="0"></use></g></g><g><use xlink:href="#bkvxqVB8S" opacity="1" fill="#3f3d56" fill-opacity="1"></use><g><use xlink:href="#bkvxqVB8S" opacity="1" fill-opacity="0" stroke="#000000" stroke-width="1" stroke-opacity="0"></use></g></g><g><use xlink:href="#h16RRBSGHL" opacity="1" fill="#3f3d56" fill-opacity="1"></use><g><use xlink:href="#h16RRBSGHL" opacity="1" fill-opacity="0" stroke="#000000" stroke-width="1" stroke-opacity="0"></use></g></g><g><use xlink:href="#bbDQAyIFU" opacity="1" fill="#3f3d56" fill-opacity="1"></use><g><use xlink:href="#bbDQAyIFU" opacity="1" fill-opacity="0" stroke="#000000" stroke-width="1" stroke-opacity="0"></use></g></g><g><use xlink:href="#aaOidZMA" opacity="1" fill="#3f3d56" fill-opacity="1"></use><g><use xlink:href="#aaOidZMA" opacity="1" fill-opacity="0" stroke="#000000" stroke-width="1" stroke-opacity="0"></use></g></g><g><use xlink:href="#e2neNiBtg4" opacity="1" fill="#f2f2f2" fill-opacity="1"></use><g><use xlink:href="#e2neNiBtg4" opacity="1" fill-opacity="0" stroke="#000000" stroke-width="1" stroke-opacity="0"></use></g></g><g><use xlink:href="#c2N99nCBaX" opacity="1" fill="#f2f2f2" fill-opacity="1"></use><g><use xlink:href="#c2N99nCBaX" opacity="1" fill-opacity="0" stroke="#000000" stroke-width="1" stroke-opacity="0"></use></g></g><g><use xlink:href="#bgfyXat9p" opacity="1" fill="#f2f2f2" fill-opacity="1"></use><g><use xlink:href="#bgfyXat9p" opacity="1" fill-opacity="0" stroke="#000000" stroke-width="1" stroke-opacity="0"></use></g></g><g><use xlink:href="#bb0Fx7AgM" opacity="1" fill="#3f3d56" fill-opacity="1"></use><g><use xlink:href="#bb0Fx7AgM" opacity="1" fill-opacity="0" stroke="#000000" stroke-width="1" stroke-opacity="0"></use></g></g><g><use xlink:href="#faKLJm67f" opacity="1" fill="#3f3d56" fill-opacity="1"></use><g><use xlink:href="#faKLJm67f" opacity="1" fill-opacity="0" stroke="#000000" stroke-width="1" stroke-opacity="0"></use></g></g><g><use xlink:href="#bY2gq8gIy" opacity="1" fill="#000000" fill-opacity="1"></use><g><use xlink:href="#bY2gq8gIy" opacity="1" fill-opacity="0" stroke="#000000" stroke-width="1" stroke-opacity="0"></use></g></g><g><use xlink:href="#c4yOcaAQTC" opacity="1" fill="#f2f2f2" fill-opacity="1"></use><g><use xlink:href="#c4yOcaAQTC" opacity="1" fill-opacity="0" stroke="#000000" stroke-width="1" stroke-opacity="0"></use></g></g><g><use xlink:href="#b13X1AnAVQ" opacity="1" fill="#000000" fill-opacity="1"></use><g><use xlink:href="#b13X1AnAVQ" opacity="1" fill-opacity="0" stroke="#000000" stroke-width="1" stroke-opacity="0"></use></g></g><g><use xlink:href="#ah4XnRCkm" opacity="1" fill="#2f2e41" fill-opacity="1"></use><g><use xlink:href="#ah4XnRCkm" opacity="1" fill-opacity="0" stroke="#000000" stroke-width="1" stroke-opacity="0"></use></g></g><g><use xlink:href="#a6rwa1Ebo" opacity="1" fill="#ffb8b8" fill-opacity="1"></use><g><use xlink:href="#a6rwa1Ebo" opacity="1" fill-opacity="0" stroke="#000000" stroke-width="1" stroke-opacity="0"></use></g></g><g><use xlink:href="#c2Rs0wbmsb" opacity="1" fill="#ffb8b8" fill-opacity="1"></use><g><use xlink:href="#c2Rs0wbmsb" opacity="1" fill-opacity="0" stroke="#000000" stroke-width="1" stroke-opacity="0"></use></g></g><g><use xlink:href="#e9VJkZyp1" opacity="1" fill="#ffb8b8" fill-opacity="1"></use><g><use xlink:href="#e9VJkZyp1" opacity="1" fill-opacity="0" stroke="#000000" stroke-width="1" stroke-opacity="0"></use></g></g><g><use xlink:href="#h13VdX1WWV" opacity="1" fill="#2f2e41" fill-opacity="1"></use><g><use xlink:href="#h13VdX1WWV" opacity="1" fill-opacity="0" stroke="#000000" stroke-width="1" stroke-opacity="0"></use></g></g><g><use xlink:href="#cgDiBnSRp" opacity="1" fill="#2f2e41" fill-opacity="1"></use><g><use xlink:href="#cgDiBnSRp" opacity="1" fill-opacity="0" stroke="#000000" stroke-width="1" stroke-opacity="0"></use></g></g><g><use xlink:href="#b4qXH9a7L" opacity="1" fill="#ffb8b8" fill-opacity="1"></use><g><use xlink:href="#b4qXH9a7L" opacity="1" fill-opacity="0" stroke="#000000" stroke-width="1" stroke-opacity="0"></use></g></g><g><use xlink:href="#g6FP7ZjfG4" opacity="1" fill="#6c63ff" fill-opacity="1"></use><g><use xlink:href="#g6FP7ZjfG4" opacity="1" fill-opacity="0" stroke="#000000" stroke-width="1" stroke-opacity="0"></use></g></g><g><use xlink:href="#f3IcAaZlDt" opacity="1" fill="#2f2e41" fill-opacity="1"></use><g><use xlink:href="#f3IcAaZlDt" opacity="1" fill-opacity="0" stroke="#000000" stroke-width="1" stroke-opacity="0"></use></g></g><g><use xlink:href="#a148B0mQBF" opacity="1" fill="#2f2e41" fill-opacity="1"></use><g><use xlink:href="#a148B0mQBF" opacity="1" fill-opacity="0" stroke="#000000" stroke-width="1" stroke-opacity="0"></use></g></g><g><use xlink:href="#afwfCbRMO" opacity="1" fill="#ffb8b8" fill-opacity="1"></use><g><use xlink:href="#afwfCbRMO" opacity="1" fill-opacity="0" stroke="#000000" stroke-width="1" stroke-opacity="0"></use></g></g><g><use xlink:href="#b2crvit5x" opacity="1" fill="#2f2e41" fill-opacity="1"></use><g><use xlink:href="#b2crvit5x" opacity="1" fill-opacity="0" stroke="#000000" stroke-width="1" stroke-opacity="0"></use></g></g><g><use xlink:href="#c2C6SZaITS" opacity="1" fill="#2f2e41" fill-opacity="1"></use><g><use xlink:href="#c2C6SZaITS" opacity="1" fill-opacity="0" stroke="#000000" stroke-width="1" stroke-opacity="0"></use></g></g><g><use xlink:href="#eeQK48mG1" opacity="1" fill="#2f2e41" fill-opacity="1"></use><g><use xlink:href="#eeQK48mG1" opacity="1" fill-opacity="0" stroke="#000000" stroke-width="1" stroke-opacity="0"></use></g></g><g><use xlink:href="#fevlOjFVe" opacity="1" fill="#ffb8b8" fill-opacity="1"></use><g><use xlink:href="#fevlOjFVe" opacity="1" fill-opacity="0" stroke="#000000" stroke-width="1" stroke-opacity="0"></use></g></g><g><use xlink:href="#fm2s8L1a4" opacity="1" fill="#2f2e41" fill-opacity="1"></use><g><use xlink:href="#fm2s8L1a4" opacity="1" fill-opacity="0" stroke="#000000" stroke-width="1" stroke-opacity="0"></use></g></g><g><use xlink:href="#d27tzwTI7Y" opacity="1" fill="#6c63ff" fill-opacity="1"></use><g><use xlink:href="#d27tzwTI7Y" opacity="1" fill-opacity="0" stroke="#000000" stroke-width="1" stroke-opacity="0"></use></g></g><g><use xlink:href="#k6AJWzY0l" opacity="1" fill="#6c63ff" fill-opacity="1"></use><g><use xlink:href="#k6AJWzY0l" opacity="1" fill-opacity="0" stroke="#000000" stroke-width="1" stroke-opacity="0"></use></g></g><g><use xlink:href="#ak4z1Ng4j" opacity="1" fill="#6c63ff" fill-opacity="1"></use><g><use xlink:href="#ak4z1Ng4j" opacity="1" fill-opacity="0" stroke="#000000" stroke-width="1" stroke-opacity="0"></use></g></g><g><use xlink:href="#bADkntr3B" opacity="1" fill="#6c63ff" fill-opacity="1"></use><g><use xlink:href="#bADkntr3B" opacity="1" fill-opacity="0" stroke="#000000" stroke-width="1" stroke-opacity="0"></use></g></g><g><use xlink:href="#c2d2cob55C" opacity="1" fill="#6c63ff" fill-opacity="1"></use><g><use xlink:href="#c2d2cob55C" opacity="1" fill-opacity="0" stroke="#000000" stroke-width="1" stroke-opacity="0"></use></g></g><g><use xlink:href="#d1bnJxoPnL" opacity="1" fill="#6c63ff" fill-opacity="1"></use><g><use xlink:href="#d1bnJxoPnL" opacity="1" fill-opacity="0" stroke="#000000" stroke-width="1" stroke-opacity="0"></use></g></g><g><use xlink:href="#biTOeJN3J" opacity="1" fill="#6c63ff" fill-opacity="1"></use><g><use xlink:href="#biTOeJN3J" opacity="1" fill-opacity="0" stroke="#000000" stroke-width="1" stroke-opacity="0"></use></g></g><g><use xlink:href="#atnZT5wqZ" opacity="1" fill="#6c63ff" fill-opacity="1"></use><g><use xlink:href="#atnZT5wqZ" opacity="1" fill-opacity="0" stroke="#000000" stroke-width="1" stroke-opacity="0"></use></g></g><g><use xlink:href="#b2wCMVy1su" opacity="1" fill="#6c63ff" fill-opacity="1"></use><g><use xlink:href="#b2wCMVy1su" opacity="1" fill-opacity="0" stroke="#000000" stroke-width="1" stroke-opacity="0"></use></g></g><g><use xlink:href="#a29KiErRhN" opacity="1" fill="#6c63ff" fill-opacity="1"></use><g><use xlink:href="#a29KiErRhN" opacity="1" fill-opacity="0" stroke="#000000" stroke-width="1" stroke-opacity="0"></use></g></g><g><use xlink:href="#a11a8ptt3X" opacity="1" fill="#6c63ff" fill-opacity="1"></use><g><use xlink:href="#a11a8ptt3X" opacity="1" fill-opacity="0" stroke="#000000" stroke-width="1" stroke-opacity="0"></use></g></g><g><use xlink:href="#eAz8GU5Mx" opacity="1" fill="#6c63ff" fill-opacity="1"></use><g><use xlink:href="#eAz8GU5Mx" opacity="1" fill-opacity="0" stroke="#000000" stroke-width="1" stroke-opacity="0"></use></g></g><g><use xlink:href="#a2OGaDotd4" opacity="1" fill="#6c63ff" fill-opacity="1"></use><g><use xlink:href="#a2OGaDotd4" opacity="1" fill-opacity="0" stroke="#000000" stroke-width="1" stroke-opacity="0"></use></g></g><g><use xlink:href="#f4Uh81DFo" opacity="1" fill="#6c63ff" fill-opacity="1"></use><g><use xlink:href="#f4Uh81DFo" opacity="1" fill-opacity="0" stroke="#000000" stroke-width="1" stroke-opacity="0"></use></g></g><g><use xlink:href="#a22BiloLT" opacity="1" fill="#6c63ff" fill-opacity="1"></use><g><use xlink:href="#a22BiloLT" opacity="1" fill-opacity="0" stroke="#000000" stroke-width="1" stroke-opacity="0"></use></g></g><g><use xlink:href="#a5NdF4JyU1" opacity="1" fill="#6c63ff" fill-opacity="1"></use><g><use xlink:href="#a5NdF4JyU1" opacity="1" fill-opacity="0" stroke="#000000" stroke-width="1" stroke-opacity="0"></use></g></g><g><use xlink:href="#aazWd5q83" opacity="1" fill="#6c63ff" fill-opacity="1"></use><g><use xlink:href="#aazWd5q83" opacity="1" fill-opacity="0" stroke="#000000" stroke-width="1" stroke-opacity="0"></use></g></g><g><use xlink:href="#c9foSdgxj" opacity="1" fill="#6c63ff" fill-opacity="1"></use><g><use xlink:href="#c9foSdgxj" opacity="1" fill-opacity="0" stroke="#000000" stroke-width="1" stroke-opacity="0"></use></g></g></g></g></svg>