<?xml version="1.0" encoding="UTF-8" standalone="no"?>
<!DOCTYPE svg PUBLIC "-//W3C//DTD SVG 1.1//EN" "http://www.w3.org/Graphics/SVG/1.1/DTD/svg11.dtd">
<svg version="1.1" xmlns="http://www.w3.org/2000/svg" xmlns:xlink="http://www.w3.org/1999/xlink" preserveAspectRatio="xMidYMid meet" viewBox="0 0 640 640" width="640" height="640"><defs><path d="M546.68 577.41C548.83 570.79 550.67 564.04 552.18 557.17C551.8 557.16 549.9 557.08 546.49 556.93C550.21 555.65 552.28 554.94 552.69 554.8C554.49 546.29 555.22 540.52 555.22 540.52C555.22 540.52 530.65 549.22 512.14 566.2C511.98 567.47 511.22 573.82 509.85 585.24C508.54 576.46 507.81 571.58 507.67 570.6C505.65 572.73 503.75 575 501.98 577.41C484.16 601.75 476.41 628.41 484.66 636.94C492.91 645.47 514.05 632.65 531.87 608.3C537.38 600.4 541.85 591.53 545.1 582.02C544.4 581.99 540.89 581.84 534.56 581.56C541.83 579.07 545.87 577.69 546.68 577.41Z" id="b1K7JXaz3G"></path><path d="M68.52 462.43C56.27 456.26 43.74 450.92 30.99 446.43C30.93 447.43 30.64 452.45 30.11 461.48C27.99 451.53 26.81 446 26.58 444.9C10.76 439.53 0 437.17 0 437.17C0 437.17 14.54 502.86 45.02 553.08C47.39 553.57 59.23 556.04 80.55 560.49C63.99 563.33 54.79 564.91 52.95 565.22C56.78 570.71 60.91 575.9 65.29 580.77C109.64 629.69 159.04 652.14 175.62 630.9C192.21 609.67 169.7 552.8 125.35 503.87C111.6 488.71 94.33 476.53 77.04 466.96C76.94 468.81 76.4 478.1 75.43 494.81C71.28 475.39 68.98 464.59 68.52 462.43Z" id="c12oApFUWW"></path><path d="M149.29 427.69C141.49 414.88 133.09 402.61 124.12 390.93C123.64 391.75 121.21 395.87 116.83 403.28C119.34 393.46 120.74 388 121.01 386.91C109.81 372.6 101.63 363.97 101.63 363.97C101.63 363.97 85.5 429.13 89.75 490.85C91.57 492.73 100.63 502.12 116.94 519.02C101.53 511.28 92.97 506.97 91.26 506.11C92.16 513.17 93.43 520.14 95.06 527.01C111.75 596.13 144.27 645.69 167.7 637.7C191.14 629.71 196.61 567.2 179.92 498.07C174.75 476.64 165.26 455.62 154.62 436.79C153.72 438.32 149.22 445.94 141.12 459.65C146.03 440.47 148.75 429.82 149.29 427.69Z" id="b61s3yqr62"></path><path d="M254.49 608.7L274.46 607L273.03 590.05L251.63 593.44L254.49 608.7Z" id="c1ZdKUc5tt"></path><path d="M198.86 608.7L178.89 607L180.32 590.05L201.72 593.44L198.86 608.7Z" id="ba5KSEm8Q"></path><path d="M223.11 66.28C223.11 48.5 210.98 34.08 196.01 34.08C181.04 34.08 168.91 48.5 168.91 66.28C168.91 84.07 181.04 98.49 196.01 98.49C210.98 98.49 223.11 84.07 223.11 66.28Z" id="a4Km7YQ54B"></path><path d="M171.76 113.74L207.42 127.3L205.99 78.15L178.89 74.76L171.76 113.74Z" id="b1290PGnbi"></path><path d="M173.79 102.68C173.79 102.68 170.34 96.79 168.91 101.88C167.49 106.96 154.65 125.61 154.65 125.61C155.31 134.88 158.64 181.21 164.63 264.6C209.99 265.62 235.19 266.19 240.23 266.3C240.23 266.3 210.69 104.27 206.91 109.85C203.14 115.44 193.16 115.44 191.73 118.83C188.14 115.6 175.58 104.3 173.79 102.68Z" id="bqQYMwPxk"></path><path d="M203.85 111.2C206.71 116.29 204.57 125.72 207.42 126.51C210.27 127.3 204.57 184.94 213.13 200.19C221.68 215.45 217.4 254.43 217.4 261.21C217.4 267.99 225.96 308.67 225.96 308.67C225.96 308.67 254.49 312.06 254.49 303.59C254.49 295.11 244.5 235.79 244.5 235.79C245.36 225.28 252.21 141.2 253.06 130.69C253.06 130.69 253.06 120.52 243.08 117.13C233.09 113.74 213.13 105.27 213.13 105.27C212.7 104.87 210.56 102.9 206.71 99.34C202.9 103.86 201.95 107.81 203.85 111.2Z" id="beOkFzl9o"></path><path d="M240.23 222.23C240.23 222.23 203.14 225.62 205.99 206.97C208.85 188.33 237.37 201.89 237.37 201.89C237.94 202.23 240.79 203.92 245.93 206.97L247.36 222.23C243.08 222.23 240.7 222.23 240.23 222.23Z" id="e1jykjANKB"></path><path d="M161.78 108.66C160.35 112.05 127.55 130.69 127.55 144.25C127.55 157.82 137.53 173.07 137.53 173.07C138.82 187.99 149.09 307.32 150.37 322.24C150.37 322.24 171.76 330.71 173.19 323.93C174.62 317.15 180.32 167.99 177.47 161.21C174.62 154.43 174.62 110.35 174.62 110.35C174.64 109.43 174.74 104.81 174.92 96.49C167.11 102.34 162.73 106.4 161.78 108.66Z" id="f2JhUjDCQ"></path><path d="M136.11 352.75C136.11 352.75 137.53 386.65 148.94 384.95C160.35 383.26 153.22 349.36 153.22 349.36C153.13 348.9 152.65 346.64 151.8 342.58L137.53 342.58C136.68 348.68 136.2 352.07 136.11 352.75Z" id="b88PNH2PVM"></path><path d="M163.21 457.84C170.34 507 173.19 591.75 173.19 591.75C173.19 591.75 191.73 595.14 194.58 596.83C197.44 598.53 204.57 593.44 204.57 593.44C204.66 576.72 205.14 493.1 205.99 342.58C222.25 410.72 231.29 448.57 233.09 456.14C233.09 456.14 237.37 593.44 245.93 596.83C254.49 600.22 280.16 593.44 280.16 593.44C280.16 593.44 270.18 462.92 267.32 457.84C264.47 452.75 257.34 303.59 245.93 276.47C245.5 274.6 242.08 259.69 241.65 257.82C241.65 257.82 160.35 261.21 154.65 256.13C156.36 296.47 156.08 408.68 163.21 457.84Z" id="i1veY48TWM"></path><path d="M248.78 600.22C248.78 605.31 241.65 636.67 250.21 636.67C258.77 636.67 315.82 642.6 314.39 629.04C312.96 615.48 278.64 593.83 278.64 593.83C278.64 593.83 265.9 598.53 264.47 600.22C263.05 601.92 255.91 601.92 255.91 601.92C254.49 601.58 248.78 595.14 248.78 600.22Z" id="b1b1WWM9vl"></path><path d="M204.57 600.22C204.57 605.31 211.7 636.67 203.14 636.67C194.58 636.67 137.53 642.6 138.96 629.04C140.39 615.48 174.71 593.83 174.71 593.83C174.71 593.83 187.45 598.53 188.88 600.22C190.31 601.92 197.44 601.92 197.44 601.92C198.86 601.58 204.57 595.14 204.57 600.22Z" id="a1Z7o9K1nb"></path><path d="M253.06 130.69C265.04 171.38 271.7 193.98 273.03 198.5C273.03 198.5 278.73 232.4 270.18 237.48C261.62 242.57 245.47 241.57 245.47 241.57C245.31 239.04 244.51 226.38 243.08 203.58L250.21 205.28L243.08 188.33L243.08 129L253.06 130.69Z" id="g2tgMhrsdm"></path><path d="M127.55 144.25C127.55 144.25 120.42 230.7 121.84 239.18C123.27 247.65 131.83 351.05 131.83 351.05C133.44 350.6 141.53 348.34 156.08 344.27L138.96 139.17L134.68 137.47C130.4 141.54 128.02 143.8 127.55 144.25Z" id="a5IhA9Z5qA"></path><path d="M166.03 25.03C166.03 25.33 166.03 27.71 166.03 28.01C166.03 28.01 182.94 5.7 193.08 11.65C193.68 11.45 196.69 10.46 202.1 8.68L202.1 11.65L207.73 8.68L206.61 13.14L214.5 13.14C212.47 14.92 211.34 15.91 211.11 16.11C211.11 16.11 237.04 14.62 221.26 36.93C221.26 36.93 228.76 50.3 221.63 57.74C221.63 57.74 215.62 41.39 207.73 45.85C205.6 47.17 203.19 47.73 200.79 47.46C198.39 47.2 196.11 46.12 194.21 44.36C194.21 44.36 178.43 42.87 180.68 51.8C182.94 60.72 181.81 63.69 181.81 63.69C181.81 63.69 176.17 68.15 177.3 71.12C178.43 74.1 178.43 83.02 178.43 83.02C178.43 83.02 172.79 72.61 170.54 74.1C168.28 75.59 155.89 60.72 166.03 42.87C166.03 39.31 158.14 30.98 166.03 25.03Z" id="c17Xh4m1dw"></path><path d="M415.27 151.1L407.19 66.12L475.24 66.12L475.24 149.33L415.27 151.1Z" id="a18vbCAyrI"></path><path d="M389.87 439.88C389.87 439.88 370.89 504.05 369.43 535.27C369.05 538.28 367.1 553.31 363.6 580.37L389.87 587.31L417.59 460.69L455.54 346.22L451.16 478.04L442.4 585.57L468.67 590.77L484.73 453.76C495.23 393.4 501.07 359.87 502.24 353.16C502.24 353.16 515.37 266.44 494.94 257.77C489.4 257.89 461.67 258.46 411.76 259.5C398.62 367.73 391.32 427.86 389.87 439.88Z" id="e26AMnCU1P"></path><path d="M385.19 611.51C385.19 611.51 416.45 632.99 406.42 637.16C396.39 641.32 382.66 635.96 379.85 635.02C376.89 634.02 371.35 632.42 367.16 631.24C365.22 630.72 363.48 629.46 362.18 627.67C360.88 625.88 360.1 623.64 359.96 621.28C359.96 621.27 359.95 621.14 359.95 621.13C359.7 615.93 369.56 570.79 369.56 570.79C370.79 570.69 376.98 570.19 388.11 569.3C386.36 594.63 385.38 608.7 385.19 611.51Z" id="bjmX4SHM"></path><path d="M466.48 610.72C466.48 610.72 502.08 626.44 492.9 632.8C483.73 639.17 469.39 637.03 466.48 636.74C461.12 636.2 447.78 635.66 447.78 635.66C447.78 635.66 445.31 638.2 444.23 633.16C443.14 628.12 445.67 583.08 445.67 583.08C446.89 582.24 453.01 577.99 464.02 570.36C465.5 594.57 466.32 608.03 466.48 610.72Z" id="bxK3uvDg0"></path><path d="M470.13 80.86C470.13 62.66 457.72 47.91 442.4 47.91C427.09 47.91 414.68 62.66 414.68 80.86C414.68 99.06 427.09 113.81 442.4 113.81C457.72 113.81 470.13 99.06 470.13 80.86Z" id="ifFm83gvQ"></path><path d="M420.51 138.1L445.32 151.97L451.16 103.41L426.35 99.94L420.51 138.1Z" id="awEXfOjIc"></path><path d="M454.08 306.33C454.08 306.33 467.21 346.22 477.43 339.29C487.64 332.35 465.75 297.66 465.75 297.66C464.1 295.7 455.83 285.87 440.94 268.18L423.43 280.32C441.82 295.93 452.04 304.6 454.08 306.33Z" id="e6r9M2xcj"></path><path d="M513.91 288.99C513.91 288.99 506.62 332.35 497.86 323.68C489.1 315 500.78 287.25 500.78 287.25C500.68 286.1 500.19 280.32 499.32 269.91L510.99 268.18C512.75 280.66 513.72 287.6 513.91 288.99Z" id="q5SzpU9rT"></path><path d="M439.48 127.69L421.97 117.28L416.13 125.96L397.16 132.89C410.3 216.14 417.59 262.39 419.05 271.64C419.05 271.64 493.48 276.85 494.94 262.97C496.4 249.1 480.35 210.94 480.35 210.94C480.35 210.94 484.73 191.86 483.27 181.46C482.88 178.68 480.93 164.81 477.43 139.83L454.08 131.16L448.75 123.49L443.86 132.89L442.4 141.56L439.48 127.69Z" id="b66zCaqeR0"></path><path d="M397.16 132.89C397.16 132.89 388.41 134.63 385.49 148.5C382.57 162.38 385.49 224.82 392.78 236.96C400.08 249.1 420.51 285.52 420.51 285.52C422.36 284.48 431.6 279.28 448.24 269.91L419.05 230.02L411.76 179.72L401.54 136.36C398.91 134.28 397.45 133.12 397.16 132.89Z" id="c1mIV0KoPE"></path><path d="M477.43 139.83C477.43 139.83 484.73 143.3 487.64 155.44C490.56 167.58 506.62 228.28 505.16 233.49C503.7 238.69 518.29 273.38 518.29 273.38C516.93 273.49 510.12 274.07 497.86 275.11L486.18 238.69L474.51 202.27L465.75 143.3C472.76 141.22 476.65 140.06 477.43 139.83Z" id="a3chklBEGO"></path><path d="M403.11 91.85C403.3 83.92 401.68 76.08 401.56 68.15C401.49 66.53 401.61 64.91 401.9 63.32C402.39 61.35 403.14 59.49 404.14 57.82C411.74 43.97 424.96 34.23 438.89 34.08C440.9 34.05 442.9 34.48 444.77 35.36C446.2 36.05 446.68 35.96 446.95 38.06C450.25 36.77 453.83 36.91 457.05 38.45C460.24 39.99 463.22 42.09 465.88 44.7C467.46 46.09 468.95 47.63 470.34 49.29C477.7 58.35 479.4 72.31 477.27 84.64C476.57 88.65 479.9 92.53 482.65 94.99C485.4 97.45 488.58 99.71 489.93 103.48C491.23 107.1 490.51 111.24 490.78 115.17C491.07 118.88 492.23 122.42 494.13 125.39C496.02 128.36 498.58 130.63 501.51 131.97C500.91 132.82 500.13 133.46 499.25 133.83C498.37 134.2 497.43 134.27 496.51 134.06C494.61 133.58 492.82 132.57 491.31 131.11C485.61 126.09 481.54 118.91 479.76 110.75C478.95 115.12 479.27 119.63 479.3 124.1C479.23 129.09 480 134.05 481.57 138.68C483.17 143.33 486.1 147.16 489.84 149.5C486.23 151.6 482.26 150.08 479.2 146.98C476.27 143.67 474.15 139.48 473.07 134.85C471.02 127.46 470.19 119.67 470.62 111.9C467.26 118.62 466.04 126.54 467.16 134.24C468.34 142.09 471.78 149.2 476.91 154.34C467.97 154.25 459.19 151.62 451.29 146.67C449.24 145.58 447.45 143.93 446.03 141.87C443.49 137.67 444.09 131.95 444.8 126.85C445.37 122.82 441.13 116.99 443.55 114.1C444.28 113.25 445.24 112.76 446.25 112.72C449.9 112.4 453.44 111.08 456.6 108.87C459.75 106.66 462.43 103.62 464.44 99.98C467.24 94.98 468.83 89.16 469.04 83.16C469.04 78.75 468.23 74.39 466.69 70.39C465.14 66.38 462.88 62.82 460.06 59.95C457.25 57.08 453.95 54.96 450.39 53.75C446.82 52.53 443.08 52.24 439.41 52.9C435.74 53.56 432.24 55.16 429.14 57.58C426.04 60 423.41 63.18 421.45 66.92C419.48 70.65 418.21 74.85 417.73 79.22C417.25 83.59 417.57 88.03 418.67 92.24C419.55 95.63 420.17 99.1 420.55 102.62C420.99 106.7 421.68 110.73 422.64 114.69C424.47 122.29 427.59 130.04 433.34 134.01C431.33 135.03 429.17 135.58 426.98 135.61C419.75 136.56 412.15 136.35 405.62 132.58C399.08 128.81 393.88 120.78 394.35 112.16C400.19 108.34 402.91 99.77 403.11 91.85Z" id="b64cyFO70T"></path><path d="M471.23 78.51C471.23 76.52 471.23 60.58 471.23 58.59C471.23 55.15 470.08 51.85 468.04 49.42C465.99 46.99 463.21 45.62 460.32 45.62C456.16 45.62 422.89 45.62 418.73 45.62C417.6 45.62 416.48 45.88 415.43 46.4C414.39 46.91 413.44 47.67 412.64 48.62C411.83 49.57 411.2 50.7 410.77 51.95C410.33 53.19 410.11 54.52 410.11 55.87C410.11 57.38 410.11 64.93 410.11 78.51C437.58 70.52 457.95 70.52 471.23 78.51Z" id="i1eCDdkZte"></path><path d="M419.62 85.03C419.62 81.82 418.25 79.22 416.57 79.22C414.88 79.22 413.51 81.82 413.51 85.03C413.51 88.25 414.88 90.85 416.57 90.85C418.25 90.85 419.62 88.25 419.62 85.03Z" id="h3BMolFfdF"></path><path d="M0 636.92L0 640L673.53 640L673.53 636.92L0 636.92Z" id="b8WMi1T8o"></path></defs><g><g><g><use xlink:href="#b1K7JXaz3G" opacity="1" fill="#e6e6e6" fill-opacity="1"></use><g><use xlink:href="#b1K7JXaz3G" opacity="1" fill-opacity="0" stroke="#000000" stroke-width="1" stroke-opacity="0"></use></g></g><g><use xlink:href="#c12oApFUWW" opacity="1" fill="#e6e6e6" fill-opacity="1"></use><g><use xlink:href="#c12oApFUWW" opacity="1" fill-opacity="0" stroke="#000000" stroke-width="1" stroke-opacity="0"></use></g></g><g><use xlink:href="#b61s3yqr62" opacity="1" fill="#e6e6e6" fill-opacity="1"></use><g><use xlink:href="#b61s3yqr62" opacity="1" fill-opacity="0" stroke="#000000" stroke-width="1" stroke-opacity="0"></use></g></g><g><use xlink:href="#c1ZdKUc5tt" opacity="1" fill="#ffb8b8" fill-opacity="1"></use><g><use xlink:href="#c1ZdKUc5tt" opacity="1" fill-opacity="0" stroke="#000000" stroke-width="1" stroke-opacity="0"></use></g></g><g><use xlink:href="#ba5KSEm8Q" opacity="1" fill="#ffb8b8" fill-opacity="1"></use><g><use xlink:href="#ba5KSEm8Q" opacity="1" fill-opacity="0" stroke="#000000" stroke-width="1" stroke-opacity="0"></use></g></g><g><use xlink:href="#a4Km7YQ54B" opacity="1" fill="#ffb8b8" fill-opacity="1"></use><g><use xlink:href="#a4Km7YQ54B" opacity="1" fill-opacity="0" stroke="#000000" stroke-width="1" stroke-opacity="0"></use></g></g><g><use xlink:href="#b1290PGnbi" opacity="1" fill="#ffb8b8" fill-opacity="1"></use><g><use xlink:href="#b1290PGnbi" opacity="1" fill-opacity="0" stroke="#000000" stroke-width="1" stroke-opacity="0"></use></g></g><g><use xlink:href="#bqQYMwPxk" opacity="1" fill="#d0cde1" fill-opacity="1"></use><g><use xlink:href="#bqQYMwPxk" opacity="1" fill-opacity="0" stroke="#000000" stroke-width="1" stroke-opacity="0"></use></g></g><g><use xlink:href="#beOkFzl9o" opacity="1" fill="#2f2e41" fill-opacity="1"></use><g><use xlink:href="#beOkFzl9o" opacity="1" fill-opacity="0" stroke="#000000" stroke-width="1" stroke-opacity="0"></use></g></g><g><use xlink:href="#e1jykjANKB" opacity="1" fill="#ffb8b8" fill-opacity="1"></use><g><use xlink:href="#e1jykjANKB" opacity="1" fill-opacity="0" stroke="#000000" stroke-width="1" stroke-opacity="0"></use></g></g><g><use xlink:href="#f2JhUjDCQ" opacity="1" fill="#2f2e41" fill-opacity="1"></use><g><use xlink:href="#f2JhUjDCQ" opacity="1" fill-opacity="0" stroke="#000000" stroke-width="1" stroke-opacity="0"></use></g></g><g><use xlink:href="#b88PNH2PVM" opacity="1" fill="#ffb8b8" fill-opacity="1"></use><g><use xlink:href="#b88PNH2PVM" opacity="1" fill-opacity="0" stroke="#000000" stroke-width="1" stroke-opacity="0"></use></g></g><g><use xlink:href="#i1veY48TWM" opacity="1" fill="#2f2e41" fill-opacity="1"></use><g><use xlink:href="#i1veY48TWM" opacity="1" fill-opacity="0" stroke="#000000" stroke-width="1" stroke-opacity="0"></use></g></g><g><use xlink:href="#b1b1WWM9vl" opacity="1" fill="#2f2e41" fill-opacity="1"></use><g><use xlink:href="#b1b1WWM9vl" opacity="1" fill-opacity="0" stroke="#000000" stroke-width="1" stroke-opacity="0"></use></g></g><g><use xlink:href="#a1Z7o9K1nb" opacity="1" fill="#2f2e41" fill-opacity="1"></use><g><use xlink:href="#a1Z7o9K1nb" opacity="1" fill-opacity="0" stroke="#000000" stroke-width="1" stroke-opacity="0"></use></g></g><g><use xlink:href="#g2tgMhrsdm" opacity="1" fill="#2f2e41" fill-opacity="1"></use><g><use xlink:href="#g2tgMhrsdm" opacity="1" fill-opacity="0" stroke="#000000" stroke-width="1" stroke-opacity="0"></use></g></g><g><use xlink:href="#a5IhA9Z5qA" opacity="1" fill="#2f2e41" fill-opacity="1"></use><g><use xlink:href="#a5IhA9Z5qA" opacity="1" fill-opacity="0" stroke="#000000" stroke-width="1" stroke-opacity="0"></use></g></g><g><use xlink:href="#c17Xh4m1dw" opacity="1" fill="#2f2e41" fill-opacity="1"></use><g><use xlink:href="#c17Xh4m1dw" opacity="1" fill-opacity="0" stroke="#000000" stroke-width="1" stroke-opacity="0"></use></g></g><g><use xlink:href="#a18vbCAyrI" opacity="1" fill="#2f2e41" fill-opacity="1"></use><g><use xlink:href="#a18vbCAyrI" opacity="1" fill-opacity="0" stroke="#000000" stroke-width="1" stroke-opacity="0"></use></g></g><g><use xlink:href="#e26AMnCU1P" opacity="1" fill="#2f2e41" fill-opacity="1"></use><g><use xlink:href="#e26AMnCU1P" opacity="1" fill-opacity="0" stroke="#000000" stroke-width="1" stroke-opacity="0"></use></g></g><g><use xlink:href="#bjmX4SHM" opacity="1" fill="#2f2e41" fill-opacity="1"></use><g><use xlink:href="#bjmX4SHM" opacity="1" fill-opacity="0" stroke="#000000" stroke-width="1" stroke-opacity="0"></use></g></g><g><use xlink:href="#bxK3uvDg0" opacity="1" fill="#2f2e41" fill-opacity="1"></use><g><use xlink:href="#bxK3uvDg0" opacity="1" fill-opacity="0" stroke="#000000" stroke-width="1" stroke-opacity="0"></use></g></g><g><use xlink:href="#ifFm83gvQ" opacity="1" fill="#ffb8b8" fill-opacity="1"></use><g><use xlink:href="#ifFm83gvQ" opacity="1" fill-opacity="0" stroke="#000000" stroke-width="1" stroke-opacity="0"></use></g></g><g><use xlink:href="#awEXfOjIc" opacity="1" fill="#ffb8b8" fill-opacity="1"></use><g><use xlink:href="#awEXfOjIc" opacity="1" fill-opacity="0" stroke="#000000" stroke-width="1" stroke-opacity="0"></use></g></g><g><use xlink:href="#e6r9M2xcj" opacity="1" fill="#ffb8b8" fill-opacity="1"></use><g><use xlink:href="#e6r9M2xcj" opacity="1" fill-opacity="0" stroke="#000000" stroke-width="1" stroke-opacity="0"></use></g></g><g><use xlink:href="#q5SzpU9rT" opacity="1" fill="#ffb8b8" fill-opacity="1"></use><g><use xlink:href="#q5SzpU9rT" opacity="1" fill-opacity="0" stroke="#000000" stroke-width="1" stroke-opacity="0"></use></g></g><g><use xlink:href="#b66zCaqeR0" opacity="1" fill="#d0cde1" fill-opacity="1"></use><g><use xlink:href="#b66zCaqeR0" opacity="1" fill-opacity="0" stroke="#000000" stroke-width="1" stroke-opacity="0"></use></g></g><g><use xlink:href="#c1mIV0KoPE" opacity="1" fill="#d0cde1" fill-opacity="1"></use><g><use xlink:href="#c1mIV0KoPE" opacity="1" fill-opacity="0" stroke="#000000" stroke-width="1" stroke-opacity="0"></use></g></g><g><use xlink:href="#a3chklBEGO" opacity="1" fill="#d0cde1" fill-opacity="1"></use><g><use xlink:href="#a3chklBEGO" opacity="1" fill-opacity="0" stroke="#000000" stroke-width="1" stroke-opacity="0"></use></g></g><g><use xlink:href="#b64cyFO70T" opacity="1" fill="#2f2e41" fill-opacity="1"></use><g><use xlink:href="#b64cyFO70T" opacity="1" fill-opacity="0" stroke="#000000" stroke-width="1" stroke-opacity="0"></use></g></g><g><use xlink:href="#i1eCDdkZte" opacity="1" fill="#2f2e41" fill-opacity="1"></use><g><use xlink:href="#i1eCDdkZte" opacity="1" fill-opacity="0" stroke="#000000" stroke-width="1" stroke-opacity="0"></use></g></g><g><use xlink:href="#h3BMolFfdF" opacity="1" fill="#ffb8b8" fill-opacity="1"></use><g><use xlink:href="#h3BMolFfdF" opacity="1" fill-opacity="0" stroke="#000000" stroke-width="1" stroke-opacity="0"></use></g></g><g><use xlink:href="#b8WMi1T8o" opacity="1" fill="#3f3d56" fill-opacity="1"></use><g><use xlink:href="#b8WMi1T8o" opacity="1" fill-opacity="0" stroke="#000000" stroke-width="1" stroke-opacity="0"></use></g></g></g></g></svg>